<svg width="96" height="96" xmlns="http://www.w3.org/2000/svg" xmlns:xlink="http://www.w3.org/1999/xlink" xml:space="preserve" overflow="hidden"><g transform="translate(-592 -312)"><g><path d="M640.658 347.155C636.412 347.167 632.339 345.479 629.345 342.468L619.705 332.829 625.362 327.171 635 336.812C638.124 339.936 643.189 339.936 646.313 336.812L655.953 327.171 661.61 332.829 651.97 342.469C648.976 345.478 644.903 347.166 640.658 347.155Z" fill="#FFFFFF" fill-rule="nonzero" fill-opacity="1"/><path d="M655.955 392.829 646.315 383.188C643.191 380.064 638.126 380.064 635.002 383.188L625.362 392.829 619.705 387.171 629.345 377.531C635.593 371.283 645.724 371.283 651.972 377.531L661.612 387.17Z" fill="#FFFFFF" fill-rule="nonzero" fill-opacity="1"/><path d="M667.177 380.954 657.537 371.314C651.299 365.061 651.299 354.939 657.537 348.686L667.177 339.046 672.835 344.7 663.194 354.34C660.075 357.466 660.075 362.527 663.194 365.654L672.835 375.294Z" fill="#FFFFFF" fill-rule="nonzero" fill-opacity="1"/><path d="M612.835 380.954 607.177 375.3 616.817 365.66C619.937 362.534 619.937 357.472 616.817 354.346L607.177 344.706 612.835 339.049 622.475 348.689C628.712 354.942 628.712 365.063 622.475 371.316Z" fill="#FFFFFF" fill-rule="nonzero" fill-opacity="1"/></g></g></svg>